<svg viewBox="0 0 24 24" fill="none" xmlns="http://www.w3.org/2000/svg">
<path fill-rule="evenodd" clip-rule="evenodd" d="M16.8228 3.75C16.8228 3.33579 16.487 3 16.0728 3C15.6585 3 15.3228 3.33579 15.3228 3.75V4.74197H8.8549V3.75C8.8549 3.33579 8.51911 3 8.1049 3C7.69068 3 7.3549 3.33579 7.3549 3.75V4.74197H5.60333C4.21001 4.74197 3 5.81456 3 7.23394V10.7179V19.4277C3 20.8471 4.21001 21.9197 5.60333 21.9197H18.5767C19.97 21.9197 21.18 20.8471 21.18 19.4277V7.23394C21.18 5.81456 19.97 4.74197 18.5767 4.74197H16.8228V3.75ZM4.5 11.4679V19.4277C4.5 19.9325 4.94952 20.4197 5.60333 20.4197H18.5767C19.2305 20.4197 19.68 19.9325 19.68 19.4277V11.4244C19.6012 11.4525 19.5162 11.4679 19.4277 11.4679H4.5ZM19.68 10.0114C19.6012 9.98321 19.5162 9.96788 19.4277 9.96788H4.5V7.23394C4.5 6.7292 4.94952 6.24197 5.60333 6.24197H7.3549V7.23394C7.3549 7.64815 7.69068 7.98394 8.1049 7.98394C8.51911 7.98394 8.8549 7.64815 8.8549 7.23394V6.24197H15.3228V7.23394C15.3228 7.64815 15.6585 7.98394 16.0728 7.98394C16.487 7.98394 16.8228 7.64815 16.8228 7.23394V6.24197H18.5767C19.2305 6.24197 19.68 6.7292 19.68 7.23394V10.0114Z" fill="#2C2C2C"/>
</svg>
