<svg viewBox="0 0 24 24" fill="none" xmlns="http://www.w3.org/2000/svg">
<path fill-rule="evenodd" clip-rule="evenodd" d="M5.05103 5.05103C5.24377 4.85828 5.50519 4.75 5.77778 4.75H15.5556C15.9698 4.75 16.3056 4.41421 16.3056 4C16.3056 3.58579 15.9698 3.25 15.5556 3.25H5.77778C5.10737 3.25 4.46442 3.51632 3.99037 3.99037C3.51632 4.46442 3.25 5.10737 3.25 5.77778V18.2222C3.25 18.8926 3.51632 19.5356 3.99037 20.0096C4.46442 20.4837 5.10737 20.75 5.77778 20.75H18.2222C18.8926 20.75 19.5356 20.4837 20.0096 20.0096C20.4837 19.5356 20.75 18.8926 20.75 18.2222V12C20.75 11.5858 20.4142 11.25 20 11.25C19.5858 11.25 19.25 11.5858 19.25 12V18.2222C19.25 18.4948 19.1417 18.7562 18.949 18.949C18.7562 19.1417 18.4948 19.25 18.2222 19.25H5.77778C5.50519 19.25 5.24378 19.1417 5.05103 18.949C4.85828 18.7562 4.75 18.4948 4.75 18.2222V5.77778C4.75 5.50519 4.85828 5.24377 5.05103 5.05103ZM20.4146 6.12945C20.7074 5.83656 20.7074 5.36168 20.4146 5.06879C20.1217 4.7759 19.6468 4.7759 19.3539 5.06879L11.3925 13.0302L9.3753 11.013C9.08241 10.7201 8.60753 10.7201 8.31464 11.013C8.02175 11.3059 8.02175 11.7808 8.31464 12.0737L10.8622 14.6212C11.1551 14.9141 11.6299 14.9141 11.9228 14.6212L20.4146 6.12945Z" fill="currentColor"/>
</svg>
