<svg viewBox="0 0 16 16" fill="none" xmlns="http://www.w3.org/2000/svg">
<path d="M8 0.1875C6.45484 0.1875 4.94437 0.645695 3.65961 1.50414C2.37485 2.36259 1.3735 3.58274 0.782194 5.01029C0.190885 6.43783 0.0361715 8.00867 0.337619 9.52414C0.639066 11.0396 1.38313 12.4317 2.47573 13.5243C3.56833 14.6169 4.96038 15.3609 6.47586 15.6624C7.99134 15.9638 9.56217 15.8091 10.9897 15.2178C12.4173 14.6265 13.6374 13.6252 14.4959 12.3404C15.3543 11.0556 15.8125 9.54517 15.8125 8C15.8084 5.92926 14.9839 3.94452 13.5197 2.48029C12.0555 1.01606 10.0707 0.191629 8 0.1875ZM8 15.1875C6.57845 15.1875 5.18882 14.766 4.00684 13.9762C2.82486 13.1864 1.90362 12.0639 1.35962 10.7505C0.815614 9.43719 0.673278 7.99203 0.950609 6.59779C1.22794 5.20355 1.91248 3.92286 2.91767 2.91767C3.92286 1.91248 5.20355 1.22794 6.59779 0.950606C7.99203 0.673274 9.4372 0.815611 10.7505 1.35962C12.0639 1.90362 13.1864 2.82486 13.9762 4.00684C14.766 5.18882 15.1875 6.57845 15.1875 8C15.1854 9.90561 14.4275 11.7326 13.08 13.08C11.7326 14.4275 9.90561 15.1854 8 15.1875ZM5.1875 8C5.1875 8.59029 5.37323 9.16563 5.71838 9.6445C6.06354 10.1234 6.55061 10.4815 7.11061 10.6682C7.67061 10.8548 8.27516 10.8606 8.8386 10.6846C9.40204 10.5086 9.89583 10.1597 10.25 9.6875C10.2746 9.65467 10.3055 9.62701 10.3408 9.6061C10.3761 9.58519 10.4152 9.57144 10.4558 9.56564C10.4964 9.55984 10.5378 9.56209 10.5776 9.57228C10.6173 9.58246 10.6547 9.60038 10.6875 9.625C10.7203 9.64962 10.748 9.68047 10.7689 9.71578C10.7898 9.75109 10.8036 9.79018 10.8094 9.8308C10.8152 9.87143 10.8129 9.9128 10.8027 9.95256C10.7925 9.99231 10.7746 10.0297 10.75 10.0625C10.3171 10.6397 9.71361 11.066 9.02495 11.2811C8.3363 11.4963 7.59742 11.4892 6.91297 11.2611C6.22852 11.0329 5.63321 10.5952 5.21136 10.0099C4.78951 9.42465 4.5625 8.72147 4.5625 8C4.5625 7.27853 4.78951 6.57535 5.21136 5.99006C5.63321 5.40477 6.22852 4.96705 6.91297 4.7389C7.59742 4.51075 8.3363 4.50374 9.02495 4.71886C9.71361 4.93398 10.3171 5.36032 10.75 5.9375C10.7746 5.97033 10.7925 6.00769 10.8027 6.04744C10.8129 6.0872 10.8152 6.12857 10.8094 6.16919C10.8036 6.20982 10.7898 6.2489 10.7689 6.28422C10.748 6.31953 10.7203 6.35038 10.6875 6.375C10.6547 6.39962 10.6173 6.41754 10.5776 6.42772C10.5378 6.43791 10.4964 6.44016 10.4558 6.43436C10.4152 6.42856 10.3761 6.41481 10.3408 6.3939C10.3055 6.37299 10.2746 6.34533 10.25 6.3125C9.9893 5.96184 9.64986 5.67733 9.25904 5.48192C8.86822 5.28651 8.43695 5.18566 8 5.1875C7.25408 5.1875 6.53871 5.48382 6.01126 6.01126C5.48382 6.53871 5.1875 7.25408 5.1875 8Z" fill="#2C2C2C"/>
</svg>
