<svg viewBox="0 0 20 21" fill="none" xmlns="http://www.w3.org/2000/svg">
<g clip-path="url(#clip0_1319_2282)">
<path d="M14.9497 15.45C13.5252 16.5358 11.7906 17.1374 9.99967 17.1667C4.16634 17.1667 0.833008 10.5 0.833008 10.5C1.86958 8.56825 3.30729 6.88051 5.04967 5.55M8.24967 4.03333C8.82328 3.89907 9.41056 3.83195 9.99967 3.83333C15.833 3.83333 19.1663 10.5 19.1663 10.5C18.6605 11.4463 18.0572 12.3373 17.3663 13.1583M11.7663 12.2667C11.5375 12.5123 11.2615 12.7093 10.9548 12.8459C10.6481 12.9826 10.3171 13.056 9.98142 13.062C9.64574 13.0679 9.31231 13.0061 9.00102 12.8804C8.68972 12.7547 8.40694 12.5675 8.16955 12.3301C7.93215 12.0927 7.745 11.81 7.61927 11.4987C7.49353 11.1874 7.43178 10.8539 7.4377 10.5183C7.44363 10.1826 7.5171 9.85154 7.65374 9.54487C7.79038 9.23821 7.98739 8.96221 8.23301 8.73333" stroke="currentColor" stroke-width="1.5" stroke-linecap="round" stroke-linejoin="round"/>
<path d="M0.833008 1.33331L19.1663 19.6666" stroke="currentColor" stroke-width="1.5" stroke-linecap="round" stroke-linejoin="round"/>
</g>
<defs>
<clipPath id="clip0_1319_2282">
<rect width="20" height="20" fill="white" transform="translate(0 0.5)"/>
</clipPath>
</defs>
</svg>
