<svg viewBox="0 0 24 24" fill="none" xmlns="http://www.w3.org/2000/svg">
<path fill-rule="evenodd" clip-rule="evenodd" d="M6.75736 4.75736C8.20272 3.312 10.1631 2.5 12.2071 2.5C14.2512 2.5 16.2115 3.312 17.6569 4.75736C19.1022 6.20272 19.9142 8.16305 19.9142 10.2071C19.9142 13.1945 17.9756 16.0656 15.8912 18.2659C14.8643 19.3498 13.8349 20.2365 13.0613 20.8525C12.7169 21.1267 12.4244 21.3464 12.2071 21.5049C11.9898 21.3464 11.6973 21.1267 11.3529 20.8525C10.5793 20.2365 9.5499 19.3498 8.52302 18.2659C6.43858 16.0656 4.5 13.1945 4.5 10.2071C4.5 8.16305 5.312 6.20272 6.75736 4.75736ZM11.7907 23.0467C11.7909 23.0468 11.7911 23.047 12.2071 22.4229L11.7911 23.047C12.043 23.2149 12.3712 23.2149 12.6231 23.047L12.2071 22.4229C12.6231 23.047 12.6233 23.0468 12.6236 23.0467L12.6242 23.0463L12.626 23.0451L12.6319 23.0411L12.6528 23.027C12.6706 23.0149 12.6962 22.9973 12.7291 22.9746C12.7949 22.929 12.8898 22.8624 13.0096 22.7758C13.2492 22.6028 13.5891 22.3497 13.9957 22.0259C14.8079 21.3792 15.8927 20.4453 16.9801 19.2975C19.1242 17.0342 21.4142 13.7974 21.4142 10.2071C21.4142 7.76523 20.4442 5.42337 18.7175 3.6967C16.9908 1.97003 14.649 1 12.2071 1C9.76523 1 7.42337 1.97003 5.6967 3.6967C3.97003 5.42337 3 7.76523 3 10.2071C3 13.7974 5.28997 17.0342 7.43409 19.2975C8.52148 20.4453 9.60633 21.3792 10.4185 22.0259C10.8252 22.3497 11.165 22.6028 11.4046 22.7758C11.5244 22.8624 11.6193 22.929 11.6851 22.9746C11.718 22.9973 11.7436 23.0149 11.7614 23.027L11.7823 23.0411L11.7882 23.0451L11.79 23.0463L11.7907 23.0467ZM9.78571 10.2071C9.78571 8.86979 10.8698 7.78569 12.2071 7.78569C13.5444 7.78569 14.6285 8.86979 14.6285 10.2071C14.6285 11.5444 13.5444 12.6285 12.2071 12.6285C10.8698 12.6285 9.78571 11.5444 9.78571 10.2071ZM12.2071 6.28569C10.0414 6.28569 8.28571 8.04137 8.28571 10.2071C8.28571 12.3728 10.0414 14.1285 12.2071 14.1285C14.3729 14.1285 16.1285 12.3728 16.1285 10.2071C16.1285 8.04137 14.3729 6.28569 12.2071 6.28569Z" fill="#2C2C2C"/>
</svg>
