<svg viewBox="0 0 24 24" fill="none" xmlns="http://www.w3.org/2000/svg">
<path d="M3.5 9.80355C3.5 9.4868 3.65007 9.18877 3.90455 9.00016L11.4045 3.44134C11.7582 3.17919 12.2418 3.17919 12.5955 3.44134L20.0955 9.00016C20.3499 9.18877 20.5 9.4868 20.5 9.80355V19.2C20.5 19.6774 20.301 20.1352 19.9468 20.4728C19.5925 20.8104 19.1121 21 18.6111 21H5.38889C4.88792 21 4.40748 20.8104 4.05324 20.4728C3.69901 20.1352 3.5 19.6774 3.5 19.2V9.80355Z" stroke="#2C2C2C" stroke-width="1.5" stroke-linecap="round" stroke-linejoin="round"/>
<path d="M9 21V14C9 13.4477 9.44772 13 10 13H14C14.5523 13 15 13.4477 15 14V21" stroke="#2C2C2C" stroke-width="1.5" stroke-linecap="round" stroke-linejoin="round"/>
</svg>
