<svg width="65" height="40" viewBox="0 0 65 40" fill="none" xmlns="http://www.w3.org/2000/svg">
<path d="M6.14252 20C4.28369 20 2.79523 19.6484 1.67714 18.9451C0.559046 18.2278 0 17.1378 0 15.6751C0 14.9015 0.132773 14.3108 0.39832 13.903C0.663868 13.4951 1.0552 13.2911 1.57232 13.2911C1.94967 13.2911 2.25715 13.3896 2.49474 13.5865C2.73234 13.7834 2.85114 14.0366 2.85114 14.346C2.85114 14.6273 2.83017 14.8734 2.78824 15.0844C2.78824 15.1406 2.77427 15.2391 2.74632 15.3797C2.73234 15.5204 2.72535 15.6681 2.72535 15.8228C2.72535 16.4557 3.03981 16.9269 3.66874 17.2363C4.31165 17.5457 5.20612 17.7004 6.35216 17.7004C7.54014 17.7004 8.46955 17.4895 9.14041 17.0675C9.81126 16.6315 10.1467 16.0267 10.1467 15.2532C10.1467 14.775 9.99295 14.3671 9.68548 14.0295C9.378 13.6779 8.99366 13.3896 8.53244 13.1646C8.07123 12.9255 7.42134 12.6371 6.58277 12.2996C5.50661 11.8776 4.62611 11.4768 3.94128 11.097C3.27042 10.7173 2.69041 10.2039 2.20125 9.55696C1.72606 8.89592 1.48846 8.08017 1.48846 7.1097C1.48846 6.09705 1.75401 5.19691 2.2851 4.40928C2.83017 3.62166 3.60585 3.00985 4.61213 2.57384C5.63239 2.13783 6.82735 1.91983 8.19702 1.91983C9.21728 1.91983 10.1537 2.07454 11.0062 2.38397C11.8588 2.67933 12.5366 3.13643 13.0398 3.75527C13.5569 4.37412 13.8154 5.13361 13.8154 6.03376C13.8154 6.91983 13.6827 7.5879 13.4171 8.03798C13.1516 8.48805 12.7602 8.71308 12.2431 8.71308C11.8797 8.71308 11.5723 8.60056 11.3207 8.37553C11.0831 8.15049 10.9643 7.88326 10.9643 7.57384C10.9643 7.30661 10.9853 7.06048 11.0272 6.83544C11.0691 6.4135 11.0901 6.14627 11.0901 6.03376C11.0901 5.44304 10.8036 4.99297 10.2305 4.68354C9.65753 4.37412 8.94474 4.21941 8.0922 4.21941C6.89025 4.21941 5.96782 4.44445 5.32492 4.89452C4.69599 5.33052 4.38153 5.94937 4.38153 6.75106C4.38153 7.28551 4.54225 7.74262 4.8637 8.12236C5.19913 8.50211 5.61143 8.81857 6.10059 9.07173C6.58976 9.32489 7.27459 9.62729 8.15509 9.9789C9.21728 10.4149 10.0698 10.8087 10.7127 11.1603C11.3556 11.512 11.9007 11.9902 12.3479 12.5949C12.8091 13.1997 13.0398 13.9451 13.0398 14.8312C13.0398 16.4909 12.4108 17.7707 11.153 18.6709C9.9091 19.557 8.23895 20 6.14252 20Z" fill="#6D30CF"/>
<path d="M25.521 13.3544C25.7027 13.3544 25.8425 13.4459 25.9403 13.6287C26.0381 13.8115 26.087 14.0436 26.087 14.3249C26.087 15 25.8844 15.4008 25.4791 15.5274C24.6405 15.8228 23.7181 15.9916 22.7118 16.0338C22.4463 17.2152 21.9221 18.1646 21.1395 18.8819C20.3568 19.5851 19.4693 19.9367 18.477 19.9367C17.6385 19.9367 16.9187 19.7328 16.3177 19.3249C15.7307 18.917 15.2835 18.3755 14.976 17.7004C14.6685 17.0253 14.5148 16.294 14.5148 15.5063C14.5148 14.4374 14.7174 13.488 15.1227 12.6582C15.5281 11.8143 16.0871 11.1603 16.7999 10.6962C17.5127 10.218 18.3023 9.9789 19.1688 9.9789C20.231 9.9789 21.0836 10.3516 21.7265 11.097C22.3834 11.8284 22.7677 12.7356 22.8795 13.8186C23.5364 13.7764 24.3191 13.6357 25.2275 13.3966C25.3393 13.3685 25.4372 13.3544 25.521 13.3544ZM18.6447 17.7004C19.092 17.7004 19.4763 17.5176 19.7978 17.1519C20.1332 16.7862 20.3568 16.2588 20.4686 15.5696C20.0354 15.2743 19.6999 14.8875 19.4623 14.4093C19.2387 13.9311 19.1269 13.4248 19.1269 12.8903C19.1269 12.6653 19.1479 12.4402 19.1898 12.2152H19.085C18.5259 12.2152 18.0577 12.4895 17.6804 13.038C17.317 13.5724 17.1353 14.3319 17.1353 15.3165C17.1353 16.09 17.2821 16.6807 17.5756 17.0886C17.883 17.4965 18.2394 17.7004 18.6447 17.7004Z" fill="#6D30CF"/>
<path d="M28.2919 19.9367C26.9222 19.9367 25.8531 19.5499 25.0844 18.7764C24.3297 17.9887 23.9523 16.955 23.9523 15.6751C23.9523 14.5359 24.1759 13.5373 24.6232 12.6793C25.0704 11.8214 25.6504 11.1603 26.3632 10.6962C27.076 10.2321 27.8237 10 28.6064 10C29.375 10 29.969 10.2321 30.3883 10.6962C30.8216 11.1463 31.0382 11.73 31.0382 12.4473C31.0382 13.038 30.9054 13.5373 30.6399 13.9451C30.3883 14.353 30.0529 14.557 29.6336 14.557C29.3681 14.557 29.1514 14.4937 28.9837 14.3671C28.83 14.2405 28.7531 14.0647 28.7531 13.8397C28.7531 13.7412 28.7671 13.6287 28.795 13.5021C28.823 13.3755 28.844 13.2841 28.8579 13.2278C28.9278 13.0169 28.9627 12.82 28.9627 12.6371C28.9627 12.4543 28.9138 12.3136 28.816 12.2152C28.7321 12.1167 28.6064 12.0675 28.4386 12.0675C28.1172 12.0675 27.8167 12.2152 27.5372 12.5105C27.2577 12.7918 27.034 13.1786 26.8663 13.6709C26.6986 14.1632 26.6148 14.7046 26.6148 15.2954C26.6148 16.9269 27.3205 17.7426 28.7321 17.7426C29.3052 17.7426 29.9201 17.5527 30.577 17.173C31.2479 16.7792 31.9047 16.1955 32.5476 15.4219C32.7153 15.225 32.904 15.1266 33.1137 15.1266C33.2954 15.1266 33.4351 15.211 33.5329 15.3797C33.6448 15.5485 33.7007 15.7806 33.7007 16.0759C33.7007 16.6104 33.5679 17.0464 33.3023 17.384C32.6455 18.1997 31.8558 18.8326 30.9334 19.2827C30.0249 19.7187 29.1444 19.9367 28.2919 19.9367Z" fill="#6D30CF"/>
<path d="M34.7523 8.6076C34.1653 8.6076 33.7251 8.47398 33.4316 8.20675C33.1381 7.92546 32.9913 7.53868 32.9913 7.04641C32.9913 6.55415 33.18 6.14627 33.5574 5.82278C33.9487 5.48523 34.4309 5.31646 35.0039 5.31646C35.521 5.31646 35.9403 5.44304 36.2617 5.6962C36.5832 5.94937 36.7439 6.30802 36.7439 6.77215C36.7439 7.33474 36.5622 7.78481 36.1988 8.12236C35.8355 8.44585 35.3533 8.6076 34.7523 8.6076ZM34.5846 19.9367C33.6762 19.9367 33.0123 19.6132 32.593 18.9662C32.1877 18.3193 31.985 17.4613 31.985 16.3924C31.985 15.7595 32.0619 14.9508 32.2156 13.9662C32.3834 12.9677 32.593 12.0394 32.8446 11.1814C32.9704 10.7314 33.1381 10.4219 33.3477 10.2532C33.5574 10.0844 33.8928 10 34.354 10C35.0668 10 35.4232 10.2391 35.4232 10.7173C35.4232 11.0689 35.2904 11.8847 35.0249 13.1646C34.6894 14.7117 34.5217 15.7595 34.5217 16.308C34.5217 16.73 34.5776 17.0534 34.6894 17.2785C34.8012 17.5035 34.9899 17.616 35.2555 17.616C35.507 17.616 35.8215 17.4402 36.1988 17.0886C36.5762 16.737 37.0793 16.1814 37.7083 15.4219C37.876 15.225 38.0647 15.1266 38.2743 15.1266C38.456 15.1266 38.5958 15.211 38.6936 15.3797C38.8054 15.5485 38.8613 15.7806 38.8613 16.0759C38.8613 16.6385 38.7285 17.0745 38.463 17.384C37.0793 19.0858 35.7865 19.9367 34.5846 19.9367Z" fill="#6D30CF"/>
<path d="M39.7438 19.9367C38.8772 19.9367 38.1854 19.6203 37.6683 18.9873C37.1512 18.3544 36.8926 17.5246 36.8926 16.4979C36.8926 15.3727 37.1512 14.3108 37.6683 13.3122C38.1854 12.2996 38.8703 11.4909 39.7228 10.8861C40.5893 10.2672 41.5048 9.95781 42.4691 9.95781C42.7766 9.95781 42.9792 10.0211 43.0771 10.1477C43.1889 10.2602 43.2797 10.4712 43.3496 10.7806C43.6431 10.7243 43.9506 10.6962 44.272 10.6962C44.9569 10.6962 45.2993 10.9423 45.2993 11.4346C45.2993 11.73 45.1945 12.4332 44.9848 13.5443C44.6634 15.1617 44.5027 16.2869 44.5027 16.9198C44.5027 17.1308 44.5516 17.2996 44.6494 17.4262C44.7612 17.5527 44.901 17.616 45.0687 17.616C45.3342 17.616 45.6557 17.4473 46.033 17.1097C46.4104 16.7581 46.9205 16.1955 47.5634 15.4219C47.7311 15.225 47.9198 15.1266 48.1295 15.1266C48.3112 15.1266 48.4509 15.211 48.5487 15.3797C48.6606 15.5485 48.7165 15.7806 48.7165 16.0759C48.7165 16.6385 48.5837 17.0745 48.3181 17.384C47.7451 18.1013 47.1372 18.706 46.4943 19.1983C45.8514 19.6906 45.2294 19.9367 44.6284 19.9367C44.1672 19.9367 43.741 19.782 43.3496 19.4726C42.9723 19.1491 42.6858 18.7131 42.4901 18.1646C41.7633 19.346 40.8479 19.9367 39.7438 19.9367ZM40.4985 17.8059C40.806 17.8059 41.0995 17.6231 41.379 17.2574C41.6585 16.8917 41.8612 16.4065 41.9869 15.8017L42.7626 11.9198C42.1756 11.9339 41.6306 12.1589 41.1274 12.5949C40.6382 13.0169 40.2469 13.5795 39.9534 14.2827C39.6599 14.9859 39.5132 15.7314 39.5132 16.519C39.5132 16.955 39.597 17.2785 39.7647 17.4895C39.9464 17.7004 40.191 17.8059 40.4985 17.8059Z" fill="#6D30CF"/>
<path d="M53.0713 16.8565C53.225 16.7159 53.3788 16.6456 53.5325 16.6456C53.7002 16.6456 53.833 16.744 53.9308 16.9409C54.0426 17.1238 54.0985 17.3488 54.0985 17.616C54.0985 18.2068 53.8889 18.6779 53.4696 19.0295C52.7429 19.6343 51.9183 19.9367 50.9958 19.9367C49.6681 19.9367 48.6968 19.3812 48.0818 18.27C47.4669 17.1449 47.1594 15.6821 47.1594 13.8819C47.1594 12.166 47.376 10.211 47.8093 8.01688C48.2565 5.82279 48.9064 3.93812 49.7589 2.36287C50.6255 0.787623 51.6527 0 52.8407 0C53.5115 0 54.0356 0.316456 54.413 0.949367C54.8043 1.56821 55 2.46132 55 3.62869C55 5.30239 54.5388 7.24332 53.6164 9.45148C52.7079 11.6596 51.464 13.8397 49.8847 15.9916C49.9826 16.5682 50.1573 16.9831 50.4088 17.2363C50.6604 17.4895 51.0028 17.616 51.4361 17.616C51.6737 17.616 51.9392 17.5457 52.2327 17.4051C52.5402 17.2644 52.8197 17.0816 53.0713 16.8565ZM52.3795 2.08861C52.058 2.08861 51.6946 2.67229 51.2893 3.83966C50.884 5.00703 50.5276 6.4557 50.2202 8.18565C49.9127 9.91561 49.745 11.5752 49.717 13.1646C50.7093 11.519 51.499 9.87342 52.086 8.22785C52.673 6.56821 52.9665 5.05626 52.9665 3.69198C52.9665 2.62307 52.7708 2.08861 52.3795 2.08861Z" fill="#6D30CF"/>
<path d="M16.5927 40C15.7704 40 14.8419 39.9306 13.807 39.7919C13.2399 39.7225 12.8501 39.5769 12.6374 39.3549C12.4248 39.1329 12.3326 38.7723 12.361 38.2728C12.4602 36.8994 12.6941 35.2069 13.0627 33.1954C13.4313 31.1699 13.8779 29.2208 14.4024 27.348C14.5016 27.0012 14.7001 26.7584 14.9978 26.6197C15.2955 26.4809 15.6854 26.4116 16.1674 26.4116C17.0322 26.4116 17.4645 26.6474 17.4645 27.1191C17.4645 27.3133 17.422 27.5353 17.337 27.785C16.9684 28.8948 16.5998 30.3861 16.2312 32.259C15.8626 34.1179 15.6003 35.8936 15.4444 37.5861C15.8697 37.6277 16.3517 37.6486 16.8904 37.6486C19.3713 37.6486 21.2213 36.9133 22.4405 35.4428C23.6739 33.9723 24.2906 32.0092 24.2906 29.5538C24.2906 27.9029 23.8086 26.6266 22.8446 25.7249C21.8806 24.8231 20.5196 24.3723 18.7617 24.3723C17.6276 24.3723 16.5005 24.5457 15.3806 24.8925C14.2748 25.2393 13.2753 25.6971 12.3822 26.2659C12.1979 26.3908 11.9995 26.4532 11.7868 26.4532C11.5458 26.4532 11.3544 26.3561 11.2126 26.1618C11.0709 25.9538 11 25.704 11 25.4127C11 25.0798 11.0567 24.8092 11.1701 24.6012C11.2835 24.3792 11.4749 24.178 11.7443 23.9977C12.7225 23.3457 13.8708 22.8532 15.1892 22.5202C16.5076 22.1734 17.7764 22 18.9956 22C20.7252 22 22.2208 22.2983 23.4825 22.8948C24.7442 23.4775 25.7153 24.3376 26.3958 25.4751C27.0763 26.6127 27.4165 27.9861 27.4165 29.5954C27.4165 31.6902 26.9912 33.5214 26.1406 35.089C25.29 36.6428 24.0496 37.8497 22.4193 38.7098C20.789 39.5699 18.8468 40 16.5927 40Z" fill="#6D30CF"/>
<path d="M31.0402 40C30.1613 40 29.4595 39.6879 28.935 39.0636C28.4105 38.4393 28.1482 37.6208 28.1482 36.6081C28.1482 35.4983 28.4105 34.4509 28.935 33.4659C29.4595 32.4671 30.1542 31.6694 31.019 31.0728C31.8979 30.4624 32.8265 30.1572 33.8047 30.1572C34.1165 30.1572 34.3221 30.2197 34.4213 30.3445C34.5348 30.4555 34.6269 30.6636 34.6978 30.9688C34.9955 30.9133 35.3074 30.8855 35.6334 30.8855C36.3281 30.8855 36.6754 31.1283 36.6754 31.6139C36.6754 31.9052 36.5691 32.5988 36.3565 33.6948C36.0304 35.2902 35.8674 36.4 35.8674 37.0243C35.8674 37.2324 35.917 37.3988 36.0162 37.5237C36.1296 37.6486 36.2714 37.711 36.4415 37.711C36.7109 37.711 37.0369 37.5445 37.4197 37.2116C37.8025 36.8647 38.3199 36.3098 38.972 35.5468C39.1422 35.3526 39.3335 35.2555 39.5462 35.2555C39.7305 35.2555 39.8723 35.3387 39.9715 35.5052C40.0849 35.6717 40.1416 35.9006 40.1416 36.1919C40.1416 36.7468 40.0069 37.1769 39.7376 37.4821C39.1563 38.1896 38.5397 38.7861 37.8875 39.2717C37.2354 39.7572 36.6045 40 35.9949 40C35.5271 40 35.0947 39.8474 34.6978 39.5422C34.315 39.2231 34.0244 38.7931 33.8259 38.252C33.0887 39.4173 32.1602 40 31.0402 40ZM31.8058 37.8983C32.1176 37.8983 32.4153 37.7179 32.6989 37.3572C32.9824 36.9965 33.188 36.5179 33.3156 35.9214L34.1024 32.0925C33.507 32.1064 32.9541 32.3283 32.4437 32.7584C31.9475 33.1746 31.5506 33.7295 31.2529 34.4231C30.9552 35.1168 30.8063 35.852 30.8063 36.6289C30.8063 37.059 30.8914 37.378 31.0615 37.5861C31.2458 37.7942 31.4939 37.8983 31.8058 37.8983Z" fill="#6D30CF"/>
<path d="M39.9231 40C39.3844 40 39.0017 39.7225 38.7748 39.1676C38.5622 38.6127 38.4559 37.7249 38.4559 36.504C38.4559 34.7006 38.7181 32.9873 39.2427 31.3642C39.3703 30.9618 39.5758 30.6705 39.8594 30.4902C40.1571 30.296 40.5682 30.1988 41.0927 30.1988C41.3763 30.1988 41.5747 30.2335 41.6881 30.3029C41.8016 30.3723 41.8583 30.504 41.8583 30.6983C41.8583 30.9202 41.7519 31.4197 41.5393 32.1965C41.3975 32.7514 41.2841 33.237 41.199 33.6532C41.114 34.0694 41.0431 34.5827 40.9864 35.1931C41.4542 34 41.9788 33.0289 42.56 32.2798C43.1412 31.5306 43.7083 30.9965 44.2612 30.6775C44.8283 30.3584 45.3457 30.1988 45.8135 30.1988C46.735 30.1988 47.1958 30.6497 47.1958 31.5514C47.1958 32.0925 47.0398 33.0705 46.7279 34.4855C46.4586 35.6925 46.3239 36.4902 46.3239 36.8786C46.3239 37.4335 46.5295 37.711 46.9406 37.711C47.2241 37.711 47.5573 37.5445 47.94 37.2116C48.337 36.8647 48.8615 36.3098 49.5136 35.5468C49.6838 35.3526 49.8751 35.2555 50.0878 35.2555C50.2721 35.2555 50.4139 35.3387 50.5131 35.5052C50.6265 35.6717 50.6832 35.9006 50.6832 36.1919C50.6832 36.7468 50.5485 37.1769 50.2792 37.4821C49.6696 38.2173 49.0104 38.8208 48.3015 39.2925C47.6069 39.7642 46.813 40 45.9199 40C45.1969 40 44.6511 39.7988 44.2825 39.3965C43.9139 38.9803 43.7296 38.3838 43.7296 37.6069C43.7296 37.2185 43.8288 36.5249 44.0273 35.526C44.2116 34.652 44.3037 34.0486 44.3037 33.7156C44.3037 33.4936 44.2258 33.3827 44.0698 33.3827C43.8855 33.3827 43.6232 33.6185 43.283 34.0902C42.9569 34.548 42.6167 35.1584 42.2623 35.9214C41.9221 36.6844 41.6456 37.489 41.433 38.3353C41.277 38.9873 41.0927 39.4312 40.8801 39.6671C40.6816 39.889 40.3626 40 39.9231 40Z" fill="#6D30CF"/>
<path d="M53.0243 40C51.635 40 50.5505 39.6185 49.7708 38.8555C49.0053 38.0786 48.6225 37.059 48.6225 35.7965C48.6225 34.6728 48.8493 33.6879 49.303 32.8416C49.7566 31.9954 50.345 31.3434 51.068 30.8855C51.791 30.4277 52.5494 30.1988 53.3433 30.1988C54.123 30.1988 54.7255 30.4277 55.1508 30.8855C55.5903 31.3295 55.8101 31.9052 55.8101 32.6127C55.8101 33.1954 55.6754 33.6879 55.406 34.0902C55.1508 34.4925 54.8106 34.6936 54.3853 34.6936C54.1159 34.6936 53.8962 34.6312 53.7261 34.5064C53.5701 34.3815 53.4922 34.2081 53.4922 33.9861C53.4922 33.889 53.5064 33.778 53.5347 33.6532C53.5631 33.5283 53.5843 33.4382 53.5985 33.3827C53.6694 33.1746 53.7048 32.9803 53.7048 32.8C53.7048 32.6197 53.6552 32.4809 53.556 32.3838C53.4709 32.2867 53.3433 32.2381 53.1732 32.2381C52.8471 32.2381 52.5423 32.3838 52.2588 32.6751C51.9753 32.9526 51.7484 33.3341 51.5783 33.8197C51.4082 34.3052 51.3232 34.8393 51.3232 35.422C51.3232 37.0312 52.0391 37.8358 53.4709 37.8358C54.0522 37.8358 54.6759 37.6486 55.3422 37.274C56.0227 36.8855 56.689 36.3098 57.3411 35.5468C57.5112 35.3526 57.7026 35.2555 57.9153 35.2555C58.0996 35.2555 58.2413 35.3387 58.3406 35.5052C58.454 35.6717 58.5107 35.9006 58.5107 36.1919C58.5107 36.7191 58.376 37.1491 58.1067 37.4821C57.4404 38.2867 56.6394 38.911 55.7037 39.3549C54.7822 39.785 53.8891 40 53.0243 40Z" fill="#6D30CF"/>
<path d="M64.4046 35.8798C64.5889 35.8798 64.7306 35.963 64.8299 36.1295C64.9433 36.296 65 36.5249 65 36.8162C65 37.3156 64.8795 37.7457 64.6385 38.1064C64.2415 38.7029 63.717 39.1676 63.0649 39.5006C62.4269 39.8335 61.6614 40 60.7683 40C59.4073 40 58.3512 39.6046 57.5998 38.8139C56.8484 38.0092 56.4728 36.9272 56.4728 35.5676C56.4728 34.6104 56.6783 33.7225 57.0894 32.904C57.5006 32.0717 58.0676 31.4127 58.7906 30.9272C59.5278 30.4416 60.3572 30.1988 61.2786 30.1988C62.1009 30.1988 62.7601 30.4416 63.2563 30.9272C63.7525 31.3988 64.0005 32.0439 64.0005 32.8624C64.0005 33.8197 63.6461 34.6451 62.9373 35.3387C62.2426 36.0185 61.0518 36.5595 59.3648 36.9619C59.705 37.6 60.2792 37.9191 61.0872 37.9191C61.6685 37.9191 62.1434 37.7873 62.512 37.5237C62.8948 37.2601 63.3342 36.8162 63.8304 36.1919C64.0005 35.9838 64.1919 35.8798 64.4046 35.8798ZM60.9171 32.2381C60.3926 32.2381 59.946 32.5364 59.5774 33.1329C59.223 33.7295 59.0458 34.4509 59.0458 35.2971V35.3387C59.8822 35.1445 60.5414 34.8532 61.0235 34.4647C61.5055 34.0763 61.7465 33.6254 61.7465 33.1121C61.7465 32.8486 61.6685 32.6405 61.5126 32.4879C61.3708 32.3214 61.1723 32.2381 60.9171 32.2381Z" fill="#6D30CF"/>
</svg>
