<svg viewBox="0 0 24 24" fill="none" xmlns="http://www.w3.org/2000/svg">
<path d="M20.8895 16.6705V19.2182C20.8904 19.4547 20.842 19.6888 20.7472 19.9055C20.6525 20.1222 20.5135 20.3167 20.3392 20.4766C20.165 20.6365 19.9592 20.7582 19.7352 20.834C19.5111 20.9098 19.2737 20.9379 19.0382 20.9166C16.425 20.6327 13.9148 19.7397 11.7094 18.3095C9.65749 17.0057 7.91786 15.266 6.61401 13.2142C5.1788 10.9987 4.28564 8.47634 4.00689 5.85139C3.98567 5.61655 4.01358 5.37987 4.08884 5.15641C4.16411 4.93295 4.28507 4.7276 4.44404 4.55346C4.60302 4.37931 4.79651 4.24017 5.0122 4.14489C5.22789 4.04962 5.46105 4.0003 5.69685 4.00008H8.24452C8.65666 3.99603 9.05621 4.14197 9.36869 4.41071C9.68118 4.67945 9.88529 5.05265 9.94297 5.46075C10.0505 6.27606 10.2499 7.07659 10.5374 7.84707C10.6517 8.15103 10.6764 8.48137 10.6087 8.79895C10.541 9.11653 10.3836 9.40804 10.1553 9.63893L9.07676 10.7174C10.2857 12.8435 12.046 14.6039 14.1721 15.8128L15.2506 14.7343C15.4815 14.506 15.773 14.3486 16.0906 14.2809C16.4082 14.2131 16.7385 14.2379 17.0425 14.3521C17.813 14.6396 18.6135 14.8391 19.4288 14.9466C19.8413 15.0048 20.2181 15.2126 20.4874 15.5304C20.7567 15.8483 20.8998 16.254 20.8895 16.6705Z" stroke="#2C2C2C" stroke-width="1.5" stroke-linecap="round" stroke-linejoin="round"/>
</svg>
