<svg viewBox="0 0 16 16" fill="none" xmlns="http://www.w3.org/2000/svg">
<path d="M10.7032 8.78846L9.06074 7.9L10.7032 7.01154C10.7958 6.96147 10.8275 6.85068 10.774 6.7639L10.3871 6.13598C10.3337 6.04932 10.2154 6.01953 10.1229 6.0696L8.48037 6.95807V5.18125C8.48037 5.08111 8.39373 5 8.28691 5H7.51309C7.40627 5 7.31963 5.08111 7.31963 5.18125V6.95818L5.67713 6.06971C5.58457 6.01964 5.46627 6.04944 5.41286 6.1361L5.02595 6.7639C4.97254 6.85056 5.0042 6.96147 5.09676 7.01154L6.73926 7.9L5.09676 8.78846C5.0042 8.83854 4.97254 8.94944 5.02595 9.0361L5.41286 9.66402C5.46627 9.75068 5.58457 9.78036 5.67713 9.7304L7.31963 8.84193V10.6188C7.31963 10.7189 7.40627 10.8 7.51309 10.8H8.28691C8.39373 10.8 8.48037 10.7189 8.48037 10.6188V8.84182L10.1229 9.73029C10.2154 9.78036 10.3337 9.75068 10.3871 9.6639L10.774 9.03598C10.8275 8.94932 10.7958 8.83854 10.7032 8.78846Z" fill="#2C2C2C"/>
</svg>
