<svg viewBox="0 0 24 24" fill="none" xmlns="http://www.w3.org/2000/svg">
<path d="M4 21.8571V20.6786C4 19.5952 4.21339 18.5224 4.62799 17.5214C5.04259 16.5205 5.65029 15.611 6.41637 14.8449C7.18245 14.0789 8.09193 13.4712 9.09286 13.0566C10.0938 12.642 11.1666 12.4286 12.25 12.4286C13.3334 12.4286 14.4062 12.642 15.4071 13.0566C16.4081 13.4712 17.3175 14.0789 18.0836 14.8449C18.8497 15.611 19.4574 16.5205 19.872 17.5214C20.2866 18.5224 20.5 19.5952 20.5 20.6786V21.8571" stroke="currentColor" stroke-width="1.5" stroke-linecap="round" stroke-linejoin="round"/>
<path d="M12.2499 12.4286C13.5002 12.4286 14.6993 11.9319 15.5834 11.0478C16.4675 10.1637 16.9642 8.96459 16.9642 7.71429C16.9642 6.46398 16.4675 5.26488 15.5834 4.38078C14.6993 3.49668 13.5002 3 12.2499 3C10.9996 3 9.80053 3.49668 8.91643 4.38078C8.03233 5.26488 7.53564 6.46398 7.53564 7.71429C7.53564 8.96459 8.03233 10.1637 8.91643 11.0478C9.80053 11.9319 10.9996 12.4286 12.2499 12.4286Z" stroke="currentColor" stroke-width="1.5" stroke-linecap="round" stroke-linejoin="round"/>
</svg>
