<svg viewBox="0 0 24 24" fill="none" xmlns="http://www.w3.org/2000/svg">
<path d="M8.88598 7.17001C9.06898 7.17501 9.27198 7.18501 9.46498 7.61301C9.59298 7.89801 9.80798 8.42301 9.98398 8.85101C10.121 9.18401 10.233 9.45801 10.261 9.51401C10.325 9.64201 10.365 9.78901 10.281 9.96201L10.253 10.02C10.1957 10.1544 10.1181 10.2791 10.023 10.39C9.97464 10.4461 9.92697 10.5028 9.87998 10.56C9.79498 10.664 9.70998 10.766 9.63798 10.838C9.50898 10.966 9.37598 11.104 9.52398 11.36C9.67298 11.616 10.192 12.458 10.959 13.137C11.5204 13.6424 12.164 14.0483 12.862 14.337C12.932 14.367 12.989 14.392 13.032 14.413C13.289 14.541 13.442 14.521 13.59 14.349C13.739 14.176 14.233 13.6 14.407 13.344C14.575 13.088 14.747 13.128 14.985 13.216C15.223 13.305 16.489 13.926 16.746 14.053L16.889 14.123C17.068 14.208 17.189 14.267 17.241 14.353C17.305 14.462 17.305 14.973 17.093 15.575C16.875 16.175 15.826 16.751 15.351 16.795L15.216 16.811C14.78 16.863 14.228 16.931 12.26 16.156C9.83398 15.202 8.23298 12.836 7.90998 12.357C7.89274 12.3314 7.87507 12.306 7.85698 12.281L7.85098 12.273C7.70398 12.076 6.80298 10.871 6.80298 9.62701C6.80298 8.43701 7.38998 7.81701 7.65698 7.53501L7.70398 7.48501C7.7904 7.38738 7.89599 7.30859 8.01419 7.25353C8.13238 7.19848 8.26064 7.16835 8.39098 7.16501C8.56398 7.16501 8.73798 7.16501 8.88598 7.17001Z" fill="#2C2C2C"/>
<path fill-rule="evenodd" clip-rule="evenodd" d="M2.18398 21.331C2.16514 21.3988 2.16451 21.4703 2.18217 21.5385C2.19982 21.6066 2.23512 21.6688 2.28452 21.7189C2.33392 21.769 2.39566 21.8052 2.46351 21.8238C2.53137 21.8425 2.60293 21.8429 2.67098 21.825L7.27798 20.621C8.73967 21.4127 10.3757 21.8275 12.038 21.828H12.042C17.528 21.828 22 17.381 22 11.916C22.0035 10.6125 21.7476 9.32138 21.2473 8.11773C20.7471 6.91408 20.0124 5.82198 19.086 4.90499C18.1614 3.98027 17.063 3.24754 15.8541 2.74898C14.6452 2.25042 13.3496 1.99587 12.042 1.99999C6.55598 1.99999 2.08398 6.44599 2.08398 11.911C2.08398 13.65 2.54198 15.358 3.41398 16.865L2.18398 21.331ZM4.86098 17.263C4.91386 17.0711 4.928 16.8705 4.90259 16.6731C4.87718 16.4757 4.81273 16.2853 4.71298 16.113C3.97312 14.8362 3.58365 13.3866 3.58398 11.911C3.58398 7.28099 7.37698 3.49999 12.042 3.49999C14.312 3.49999 16.43 4.37699 18.028 5.96799C18.8143 6.74563 19.4379 7.67209 19.8623 8.69332C20.2867 9.71455 20.5035 10.8101 20.5 11.916C20.5 16.546 16.707 20.328 12.042 20.328H12.037C10.6247 20.3273 9.23481 19.9746 7.99298 19.302C7.65827 19.1208 7.26719 19.0736 6.89898 19.17L4.13698 19.891L4.86098 17.263Z" fill="#2C2C2C"/>
</svg>
